<svg width="32" height="32" viewBox="0 0 32 32" fill="none" xmlns="http://www.w3.org/2000/svg">
<rect width="32" height="32" rx="8" fill="#18181B"/>
<rect x="4" y="4" width="24" height="24" rx="4" fill="#202025"/>
<path d="M15.1428 22.5454C14.8556 22.5454 14.6274 22.3039 14.6436 22.0171L14.8412 18.5375C14.8552 18.2916 14.5832 18.1346 14.3772 18.2697L11.4546 20.1866C11.2141 20.3443 10.8904 20.2671 10.747 20.0179L9.88914 18.5272C9.74578 18.278 9.84147 17.9596 10.0984 17.8308L13.2151 16.2682C13.4358 16.1575 13.4358 15.8425 13.2151 15.7318L10.0984 14.1692C9.84147 14.0403 9.74578 13.7219 9.88914 13.4728L10.747 11.9821C10.8904 11.7328 11.2141 11.6557 11.4546 11.8134L14.3772 13.7303C14.5832 13.8654 14.8552 13.7084 14.8412 13.4624L14.6436 9.98288C14.6274 9.69606 14.8556 9.45453 15.1428 9.45453H16.8471C17.1339 9.45453 17.3619 9.69527 17.3464 9.98165L17.1572 13.4642C17.1438 13.7098 17.4156 13.8662 17.6213 13.7313L20.5454 11.8134C20.7859 11.6557 21.1096 11.7328 21.253 11.9821L22.1106 13.4723C22.254 13.7216 22.1581 14.0403 21.9008 14.1689L18.7753 15.7317C18.5542 15.8422 18.5542 16.1578 18.7753 16.2683L21.9008 17.8311C22.1581 17.9597 22.254 18.2784 22.1106 18.5277L21.253 20.0179C21.1096 20.2671 20.7859 20.3443 20.5454 20.1866L17.6213 18.2687C17.4156 18.1337 17.1438 18.2902 17.1572 18.5358L17.3464 22.0183C17.3619 22.3047 17.1339 22.5454 16.8471 22.5454H15.1428Z" fill="#E4E4E7"/>
</svg>
